<mxfile host="app.diagrams.net" modified="2024-06-05T20:29:54.543Z" agent="Mozilla/5.0 (X11; Linux x86_64) AppleWebKit/537.36 (KHTML, like Gecko) Chrome/114.0.0.0 Safari/537.36" etag="uQXiOxeMK-pEZUjr3jQa" version="24.4.10" type="github">
  <diagram name="Page-1" id="gWwiJSvLonDP4zcX0_uN">
    <mxGraphModel dx="1448" dy="913" grid="0" gridSize="10" guides="1" tooltips="1" connect="1" arrows="1" fold="1" page="0" pageScale="1" pageWidth="850" pageHeight="1100" math="0" shadow="0">
      <root>
        <mxCell id="0" />
        <mxCell id="1" parent="0" />
        <mxCell id="TH4SRn1m3lPipZhizVn4-1" value="&lt;ol style=&quot;box-sizing: border-box; margin-top: 0px; margin-bottom: 10px; color: rgb(44, 45, 48); font-family: Onest, Roboto, &amp;quot;San Francisco&amp;quot;, &amp;quot;Helvetica Neue&amp;quot;, Helvetica, Arial; font-size: 14px; text-align: start; text-wrap: wrap;&quot;&gt;&lt;li style=&quot;box-sizing: border-box;&quot;&gt;Нахождение индексов максимального и минимального элемента массива (16)&lt;/li&gt;&lt;/ol&gt;" style="text;html=1;align=center;verticalAlign=middle;resizable=0;points=[];autosize=1;strokeColor=none;fillColor=none;fontSize=16;" vertex="1" parent="1">
          <mxGeometry x="-357" y="43" width="569" height="39" as="geometry" />
        </mxCell>
        <mxCell id="TH4SRn1m3lPipZhizVn4-20" style="edgeStyle=none;curved=1;rounded=0;orthogonalLoop=1;jettySize=auto;html=1;fontSize=12;startSize=8;endSize=8;" edge="1" parent="1" source="TH4SRn1m3lPipZhizVn4-2" target="TH4SRn1m3lPipZhizVn4-3">
          <mxGeometry relative="1" as="geometry" />
        </mxCell>
        <mxCell id="TH4SRn1m3lPipZhizVn4-2" value="Start" style="ellipse;whiteSpace=wrap;html=1;" vertex="1" parent="1">
          <mxGeometry x="86" y="-58" width="120" height="80" as="geometry" />
        </mxCell>
        <mxCell id="TH4SRn1m3lPipZhizVn4-21" style="edgeStyle=none;curved=1;rounded=0;orthogonalLoop=1;jettySize=auto;html=1;entryX=0.5;entryY=0;entryDx=0;entryDy=0;fontSize=12;startSize=8;endSize=8;" edge="1" parent="1" source="TH4SRn1m3lPipZhizVn4-3" target="TH4SRn1m3lPipZhizVn4-4">
          <mxGeometry relative="1" as="geometry" />
        </mxCell>
        <mxCell id="TH4SRn1m3lPipZhizVn4-3" value="max = 0&lt;div&gt;min = 0&lt;/div&gt;" style="rounded=0;whiteSpace=wrap;html=1;" vertex="1" parent="1">
          <mxGeometry x="86" y="55" width="120" height="60" as="geometry" />
        </mxCell>
        <mxCell id="TH4SRn1m3lPipZhizVn4-9" style="edgeStyle=none;curved=1;rounded=0;orthogonalLoop=1;jettySize=auto;html=1;entryX=0.5;entryY=0;entryDx=0;entryDy=0;fontSize=12;startSize=8;endSize=8;" edge="1" parent="1" source="TH4SRn1m3lPipZhizVn4-4" target="TH4SRn1m3lPipZhizVn4-5">
          <mxGeometry relative="1" as="geometry" />
        </mxCell>
        <mxCell id="TH4SRn1m3lPipZhizVn4-24" style="edgeStyle=none;curved=1;rounded=0;orthogonalLoop=1;jettySize=auto;html=1;fontSize=12;startSize=8;endSize=8;exitX=1;exitY=0.5;exitDx=0;exitDy=0;" edge="1" parent="1" source="TH4SRn1m3lPipZhizVn4-4">
          <mxGeometry relative="1" as="geometry">
            <mxPoint x="146" y="825" as="targetPoint" />
            <Array as="points">
              <mxPoint x="488" y="537" />
            </Array>
          </mxGeometry>
        </mxCell>
        <mxCell id="TH4SRn1m3lPipZhizVn4-4" value="array = 1 , 10 , 9&lt;div&gt;i = 0&lt;/div&gt;" style="shape=hexagon;perimeter=hexagonPerimeter2;whiteSpace=wrap;html=1;fixedSize=1;" vertex="1" parent="1">
          <mxGeometry x="86" y="151" width="120" height="80" as="geometry" />
        </mxCell>
        <mxCell id="TH4SRn1m3lPipZhizVn4-10" style="edgeStyle=none;curved=1;rounded=0;orthogonalLoop=1;jettySize=auto;html=1;exitX=0.5;exitY=1;exitDx=0;exitDy=0;entryX=0.5;entryY=0;entryDx=0;entryDy=0;fontSize=12;startSize=8;endSize=8;" edge="1" parent="1" source="TH4SRn1m3lPipZhizVn4-5" target="TH4SRn1m3lPipZhizVn4-6">
          <mxGeometry relative="1" as="geometry" />
        </mxCell>
        <mxCell id="TH4SRn1m3lPipZhizVn4-13" style="edgeStyle=none;curved=1;rounded=0;orthogonalLoop=1;jettySize=auto;html=1;exitX=1;exitY=0.5;exitDx=0;exitDy=0;fontSize=12;startSize=8;endSize=8;entryX=0.5;entryY=0;entryDx=0;entryDy=0;" edge="1" parent="1" source="TH4SRn1m3lPipZhizVn4-5" target="TH4SRn1m3lPipZhizVn4-7">
          <mxGeometry relative="1" as="geometry">
            <mxPoint x="228" y="455" as="targetPoint" />
            <Array as="points">
              <mxPoint x="263" y="456" />
            </Array>
          </mxGeometry>
        </mxCell>
        <mxCell id="TH4SRn1m3lPipZhizVn4-5" value="max &amp;lt; array[i]" style="rhombus;whiteSpace=wrap;html=1;" vertex="1" parent="1">
          <mxGeometry x="57" y="264" width="180" height="80" as="geometry" />
        </mxCell>
        <mxCell id="TH4SRn1m3lPipZhizVn4-11" style="edgeStyle=none;curved=1;rounded=0;orthogonalLoop=1;jettySize=auto;html=1;exitX=0.5;exitY=1;exitDx=0;exitDy=0;fontSize=12;startSize=8;endSize=8;" edge="1" parent="1" source="TH4SRn1m3lPipZhizVn4-6" target="TH4SRn1m3lPipZhizVn4-7">
          <mxGeometry relative="1" as="geometry" />
        </mxCell>
        <mxCell id="TH4SRn1m3lPipZhizVn4-6" value="max = array[i]" style="rounded=0;whiteSpace=wrap;html=1;" vertex="1" parent="1">
          <mxGeometry x="87" y="366" width="120" height="60" as="geometry" />
        </mxCell>
        <mxCell id="TH4SRn1m3lPipZhizVn4-12" style="edgeStyle=none;curved=1;rounded=0;orthogonalLoop=1;jettySize=auto;html=1;exitX=0.5;exitY=1;exitDx=0;exitDy=0;entryX=0.5;entryY=0;entryDx=0;entryDy=0;fontSize=12;startSize=8;endSize=8;" edge="1" parent="1" source="TH4SRn1m3lPipZhizVn4-7" target="TH4SRn1m3lPipZhizVn4-8">
          <mxGeometry relative="1" as="geometry" />
        </mxCell>
        <mxCell id="TH4SRn1m3lPipZhizVn4-22" style="edgeStyle=none;curved=1;rounded=0;orthogonalLoop=1;jettySize=auto;html=1;entryX=1;entryY=0.5;entryDx=0;entryDy=0;fontSize=12;startSize=8;endSize=8;exitX=1;exitY=0.5;exitDx=0;exitDy=0;" edge="1" parent="1" source="TH4SRn1m3lPipZhizVn4-7" target="TH4SRn1m3lPipZhizVn4-18">
          <mxGeometry relative="1" as="geometry">
            <Array as="points">
              <mxPoint x="321" y="598" />
            </Array>
          </mxGeometry>
        </mxCell>
        <mxCell id="TH4SRn1m3lPipZhizVn4-7" value="min &amp;gt; array[i]" style="rhombus;whiteSpace=wrap;html=1;" vertex="1" parent="1">
          <mxGeometry x="60.5" y="460" width="173" height="80" as="geometry" />
        </mxCell>
        <mxCell id="TH4SRn1m3lPipZhizVn4-19" style="edgeStyle=none;curved=1;rounded=0;orthogonalLoop=1;jettySize=auto;html=1;fontSize=12;startSize=8;endSize=8;" edge="1" parent="1" source="TH4SRn1m3lPipZhizVn4-8" target="TH4SRn1m3lPipZhizVn4-18">
          <mxGeometry relative="1" as="geometry" />
        </mxCell>
        <mxCell id="TH4SRn1m3lPipZhizVn4-8" value="min = array[i]" style="rounded=0;whiteSpace=wrap;html=1;" vertex="1" parent="1">
          <mxGeometry x="86" y="571" width="120" height="60" as="geometry" />
        </mxCell>
        <mxCell id="TH4SRn1m3lPipZhizVn4-23" style="edgeStyle=none;curved=1;rounded=0;orthogonalLoop=1;jettySize=auto;html=1;entryX=0;entryY=0.5;entryDx=0;entryDy=0;fontSize=12;startSize=8;endSize=8;exitX=0;exitY=0.5;exitDx=0;exitDy=0;" edge="1" parent="1" source="TH4SRn1m3lPipZhizVn4-18" target="TH4SRn1m3lPipZhizVn4-4">
          <mxGeometry relative="1" as="geometry">
            <mxPoint x="84" y="682" as="sourcePoint" />
            <Array as="points">
              <mxPoint x="-154" y="395" />
            </Array>
          </mxGeometry>
        </mxCell>
        <mxCell id="TH4SRn1m3lPipZhizVn4-18" value="i++" style="rounded=0;whiteSpace=wrap;html=1;" vertex="1" parent="1">
          <mxGeometry x="86" y="652" width="120" height="60" as="geometry" />
        </mxCell>
        <mxCell id="TH4SRn1m3lPipZhizVn4-25" value="Da" style="text;html=1;align=center;verticalAlign=middle;resizable=0;points=[];autosize=1;strokeColor=none;fillColor=none;fontSize=16;" vertex="1" parent="1">
          <mxGeometry x="115.5" y="534.5" width="38" height="31" as="geometry" />
        </mxCell>
        <mxCell id="TH4SRn1m3lPipZhizVn4-26" value="da" style="text;html=1;align=center;verticalAlign=middle;resizable=0;points=[];autosize=1;strokeColor=none;fillColor=none;fontSize=16;" vertex="1" parent="1">
          <mxGeometry x="97.5" y="332.5" width="36" height="31" as="geometry" />
        </mxCell>
        <mxCell id="TH4SRn1m3lPipZhizVn4-27" value="no" style="text;html=1;align=center;verticalAlign=middle;resizable=0;points=[];autosize=1;strokeColor=none;fillColor=none;fontSize=16;" vertex="1" parent="1">
          <mxGeometry x="203.5" y="256.5" width="36" height="31" as="geometry" />
        </mxCell>
        <mxCell id="TH4SRn1m3lPipZhizVn4-28" value="no" style="text;html=1;align=center;verticalAlign=middle;resizable=0;points=[];autosize=1;strokeColor=none;fillColor=none;fontSize=16;" vertex="1" parent="1">
          <mxGeometry x="206.5" y="464.5" width="36" height="31" as="geometry" />
        </mxCell>
        <mxCell id="TH4SRn1m3lPipZhizVn4-31" style="edgeStyle=none;curved=1;rounded=0;orthogonalLoop=1;jettySize=auto;html=1;entryX=0.5;entryY=0;entryDx=0;entryDy=0;fontSize=12;startSize=8;endSize=8;" edge="1" parent="1" source="TH4SRn1m3lPipZhizVn4-29" target="TH4SRn1m3lPipZhizVn4-30">
          <mxGeometry relative="1" as="geometry" />
        </mxCell>
        <mxCell id="TH4SRn1m3lPipZhizVn4-29" value="max&lt;div&gt;min&lt;/div&gt;" style="rounded=0;whiteSpace=wrap;html=1;" vertex="1" parent="1">
          <mxGeometry x="83.5" y="826" width="120" height="60" as="geometry" />
        </mxCell>
        <mxCell id="TH4SRn1m3lPipZhizVn4-30" value="end" style="ellipse;whiteSpace=wrap;html=1;" vertex="1" parent="1">
          <mxGeometry x="80" y="917" width="120" height="80" as="geometry" />
        </mxCell>
        <mxCell id="TH4SRn1m3lPipZhizVn4-33" value="&lt;ol style=&quot;box-sizing: border-box; margin-top: 0px; margin-bottom: 10px; color: rgb(44, 45, 48); font-family: Onest, Roboto, &amp;quot;San Francisco&amp;quot;, &amp;quot;Helvetica Neue&amp;quot;, Helvetica, Arial; font-size: 15px; font-style: normal; font-variant-ligatures: normal; font-variant-caps: normal; font-weight: 400; letter-spacing: normal; orphans: 2; text-align: start; text-indent: 0px; text-transform: none; widows: 2; word-spacing: 0px; -webkit-text-stroke-width: 0px; white-space: normal; background-color: rgb(255, 255, 255); text-decoration-thickness: initial; text-decoration-style: initial; text-decoration-color: initial;&quot;&gt;&lt;li style=&quot;box-sizing: border-box;&quot;&gt;Задание на «разворот» массива. Нужно перевернуть массив и записать его в обратном порядке. (17)&lt;/li&gt;&lt;/ol&gt;&lt;br class=&quot;Apple-interchange-newline&quot;&gt;" style="text;whiteSpace=wrap;html=1;" vertex="1" parent="1">
          <mxGeometry x="-278" y="1040" width="550" height="82" as="geometry" />
        </mxCell>
        <mxCell id="TH4SRn1m3lPipZhizVn4-50" style="edgeStyle=none;curved=1;rounded=0;orthogonalLoop=1;jettySize=auto;html=1;fontSize=12;startSize=8;endSize=8;" edge="1" parent="1" source="TH4SRn1m3lPipZhizVn4-34" target="TH4SRn1m3lPipZhizVn4-35">
          <mxGeometry relative="1" as="geometry" />
        </mxCell>
        <mxCell id="TH4SRn1m3lPipZhizVn4-34" value="start" style="ellipse;whiteSpace=wrap;html=1;" vertex="1" parent="1">
          <mxGeometry x="83.5" y="1120" width="120" height="80" as="geometry" />
        </mxCell>
        <mxCell id="TH4SRn1m3lPipZhizVn4-49" style="edgeStyle=none;curved=1;rounded=0;orthogonalLoop=1;jettySize=auto;html=1;fontSize=12;startSize=8;endSize=8;" edge="1" parent="1" source="TH4SRn1m3lPipZhizVn4-35" target="TH4SRn1m3lPipZhizVn4-36">
          <mxGeometry relative="1" as="geometry" />
        </mxCell>
        <mxCell id="TH4SRn1m3lPipZhizVn4-35" value="array = [ 1, 4 , 2 , 14 , 5 ,6 ]&lt;div&gt;size = 6&lt;/div&gt;&lt;div&gt;index = size - 1&lt;/div&gt;" style="rounded=0;whiteSpace=wrap;html=1;" vertex="1" parent="1">
          <mxGeometry x="49.5" y="1221" width="181" height="60" as="geometry" />
        </mxCell>
        <mxCell id="TH4SRn1m3lPipZhizVn4-48" style="edgeStyle=none;curved=1;rounded=0;orthogonalLoop=1;jettySize=auto;html=1;entryX=0;entryY=0.5;entryDx=0;entryDy=0;fontSize=12;startSize=8;endSize=8;" edge="1" parent="1" source="TH4SRn1m3lPipZhizVn4-36" target="TH4SRn1m3lPipZhizVn4-38">
          <mxGeometry relative="1" as="geometry" />
        </mxCell>
        <mxCell id="TH4SRn1m3lPipZhizVn4-36" value="index &amp;gt;=0" style="rhombus;whiteSpace=wrap;html=1;" vertex="1" parent="1">
          <mxGeometry x="100" y="1305" width="80" height="80" as="geometry" />
        </mxCell>
        <mxCell id="TH4SRn1m3lPipZhizVn4-40" style="edgeStyle=none;curved=1;rounded=0;orthogonalLoop=1;jettySize=auto;html=1;fontSize=12;startSize=8;endSize=8;" edge="1" parent="1" source="TH4SRn1m3lPipZhizVn4-38" target="TH4SRn1m3lPipZhizVn4-39">
          <mxGeometry relative="1" as="geometry" />
        </mxCell>
        <mxCell id="TH4SRn1m3lPipZhizVn4-38" value="array[]" style="shape=parallelogram;perimeter=parallelogramPerimeter;whiteSpace=wrap;html=1;fixedSize=1;" vertex="1" parent="1">
          <mxGeometry x="206" y="1315" width="120" height="60" as="geometry" />
        </mxCell>
        <mxCell id="TH4SRn1m3lPipZhizVn4-39" value="end" style="ellipse;whiteSpace=wrap;html=1;" vertex="1" parent="1">
          <mxGeometry x="206" y="1414" width="120" height="80" as="geometry" />
        </mxCell>
        <mxCell id="TH4SRn1m3lPipZhizVn4-45" style="edgeStyle=none;curved=1;rounded=0;orthogonalLoop=1;jettySize=auto;html=1;exitX=0;exitY=0.5;exitDx=0;exitDy=0;entryX=0;entryY=0.5;entryDx=0;entryDy=0;fontSize=12;startSize=8;endSize=8;" edge="1" parent="1" source="TH4SRn1m3lPipZhizVn4-41" target="TH4SRn1m3lPipZhizVn4-36">
          <mxGeometry relative="1" as="geometry">
            <Array as="points">
              <mxPoint x="12" y="1372" />
            </Array>
          </mxGeometry>
        </mxCell>
        <mxCell id="TH4SRn1m3lPipZhizVn4-41" value="index = index -1" style="rounded=0;whiteSpace=wrap;html=1;" vertex="1" parent="1">
          <mxGeometry x="60.5" y="1421" width="120" height="60" as="geometry" />
        </mxCell>
        <mxCell id="TH4SRn1m3lPipZhizVn4-42" style="edgeStyle=none;curved=1;rounded=0;orthogonalLoop=1;jettySize=auto;html=1;entryX=0.654;entryY=0.017;entryDx=0;entryDy=0;entryPerimeter=0;fontSize=12;startSize=8;endSize=8;" edge="1" parent="1" source="TH4SRn1m3lPipZhizVn4-36" target="TH4SRn1m3lPipZhizVn4-41">
          <mxGeometry relative="1" as="geometry" />
        </mxCell>
        <mxCell id="TH4SRn1m3lPipZhizVn4-46" value="da" style="text;html=1;align=center;verticalAlign=middle;resizable=0;points=[];autosize=1;strokeColor=none;fillColor=none;fontSize=16;" vertex="1" parent="1">
          <mxGeometry x="86.5" y="1376.5" width="36" height="31" as="geometry" />
        </mxCell>
        <mxCell id="TH4SRn1m3lPipZhizVn4-47" value="no" style="text;html=1;align=center;verticalAlign=middle;resizable=0;points=[];autosize=1;strokeColor=none;fillColor=none;fontSize=16;" vertex="1" parent="1">
          <mxGeometry x="181.5" y="1299.5" width="36" height="31" as="geometry" />
        </mxCell>
        <mxCell id="TH4SRn1m3lPipZhizVn4-51" value="&lt;ol style=&quot;box-sizing: border-box; margin-top: 0px; margin-bottom: 10px; color: rgb(44, 45, 48); font-family: Onest, Roboto, &amp;quot;San Francisco&amp;quot;, &amp;quot;Helvetica Neue&amp;quot;, Helvetica, Arial; font-size: 15px; font-style: normal; font-variant-ligatures: normal; font-variant-caps: normal; font-weight: 400; letter-spacing: normal; orphans: 2; text-align: start; text-indent: 0px; text-transform: none; widows: 2; word-spacing: 0px; -webkit-text-stroke-width: 0px; white-space: normal; background-color: rgb(255, 255, 255); text-decoration-thickness: initial; text-decoration-style: initial; text-decoration-color: initial;&quot;&gt;&lt;li style=&quot;box-sizing: border-box;&quot;&gt;Найти среднее арифметическое среди всех элементов массива. (12)&lt;/li&gt;&lt;/ol&gt;" style="text;whiteSpace=wrap;html=1;" vertex="1" parent="1">
          <mxGeometry x="-264" y="1566" width="550" height="68" as="geometry" />
        </mxCell>
        <mxCell id="TH4SRn1m3lPipZhizVn4-56" style="edgeStyle=none;curved=1;rounded=0;orthogonalLoop=1;jettySize=auto;html=1;entryX=0.5;entryY=0;entryDx=0;entryDy=0;fontSize=12;startSize=8;endSize=8;" edge="1" parent="1" source="TH4SRn1m3lPipZhizVn4-52" target="TH4SRn1m3lPipZhizVn4-53">
          <mxGeometry relative="1" as="geometry" />
        </mxCell>
        <mxCell id="TH4SRn1m3lPipZhizVn4-52" value="start" style="ellipse;whiteSpace=wrap;html=1;" vertex="1" parent="1">
          <mxGeometry x="-40" y="1621" width="120" height="80" as="geometry" />
        </mxCell>
        <mxCell id="TH4SRn1m3lPipZhizVn4-57" style="edgeStyle=none;curved=1;rounded=0;orthogonalLoop=1;jettySize=auto;html=1;fontSize=12;startSize=8;endSize=8;" edge="1" parent="1" source="TH4SRn1m3lPipZhizVn4-53" target="TH4SRn1m3lPipZhizVn4-55">
          <mxGeometry relative="1" as="geometry" />
        </mxCell>
        <mxCell id="TH4SRn1m3lPipZhizVn4-53" value="index = 0&lt;div&gt;sum = 0&lt;/div&gt;&lt;div&gt;array[1,2,3]&lt;/div&gt;&lt;div&gt;size = 3&lt;/div&gt;&lt;div&gt;avg = 0&lt;/div&gt;" style="rounded=0;whiteSpace=wrap;html=1;" vertex="1" parent="1">
          <mxGeometry x="-40" y="1726" width="120" height="77" as="geometry" />
        </mxCell>
        <mxCell id="TH4SRn1m3lPipZhizVn4-60" style="edgeStyle=none;curved=1;rounded=0;orthogonalLoop=1;jettySize=auto;html=1;entryX=0.5;entryY=0;entryDx=0;entryDy=0;fontSize=12;startSize=8;endSize=8;" edge="1" parent="1" source="TH4SRn1m3lPipZhizVn4-55" target="TH4SRn1m3lPipZhizVn4-58">
          <mxGeometry relative="1" as="geometry" />
        </mxCell>
        <mxCell id="TH4SRn1m3lPipZhizVn4-64" value="" style="edgeStyle=none;curved=1;rounded=0;orthogonalLoop=1;jettySize=auto;html=1;fontSize=12;startSize=8;endSize=8;" edge="1" parent="1" source="TH4SRn1m3lPipZhizVn4-55" target="TH4SRn1m3lPipZhizVn4-63">
          <mxGeometry relative="1" as="geometry" />
        </mxCell>
        <mxCell id="TH4SRn1m3lPipZhizVn4-55" value="index &amp;lt; size" style="rhombus;whiteSpace=wrap;html=1;" vertex="1" parent="1">
          <mxGeometry x="-20" y="1824" width="80" height="80" as="geometry" />
        </mxCell>
        <mxCell id="TH4SRn1m3lPipZhizVn4-61" style="edgeStyle=none;curved=1;rounded=0;orthogonalLoop=1;jettySize=auto;html=1;entryX=0.5;entryY=0;entryDx=0;entryDy=0;fontSize=12;startSize=8;endSize=8;" edge="1" parent="1" source="TH4SRn1m3lPipZhizVn4-58" target="TH4SRn1m3lPipZhizVn4-59">
          <mxGeometry relative="1" as="geometry" />
        </mxCell>
        <mxCell id="TH4SRn1m3lPipZhizVn4-58" value="sum = sum + array[index]" style="rounded=0;whiteSpace=wrap;html=1;" vertex="1" parent="1">
          <mxGeometry x="-68.75" y="1928" width="177.5" height="60" as="geometry" />
        </mxCell>
        <mxCell id="TH4SRn1m3lPipZhizVn4-62" style="edgeStyle=none;curved=1;rounded=0;orthogonalLoop=1;jettySize=auto;html=1;exitX=0;exitY=0.5;exitDx=0;exitDy=0;entryX=0;entryY=0.5;entryDx=0;entryDy=0;fontSize=12;startSize=8;endSize=8;" edge="1" parent="1" source="TH4SRn1m3lPipZhizVn4-59" target="TH4SRn1m3lPipZhizVn4-55">
          <mxGeometry relative="1" as="geometry">
            <Array as="points">
              <mxPoint x="-192" y="1945" />
            </Array>
          </mxGeometry>
        </mxCell>
        <mxCell id="TH4SRn1m3lPipZhizVn4-59" value="index = index - 1" style="rounded=0;whiteSpace=wrap;html=1;" vertex="1" parent="1">
          <mxGeometry x="-40" y="2012" width="120" height="60" as="geometry" />
        </mxCell>
        <mxCell id="TH4SRn1m3lPipZhizVn4-66" style="edgeStyle=none;curved=1;rounded=0;orthogonalLoop=1;jettySize=auto;html=1;entryX=0;entryY=0.5;entryDx=0;entryDy=0;fontSize=12;startSize=8;endSize=8;" edge="1" parent="1" source="TH4SRn1m3lPipZhizVn4-63" target="TH4SRn1m3lPipZhizVn4-65">
          <mxGeometry relative="1" as="geometry" />
        </mxCell>
        <mxCell id="TH4SRn1m3lPipZhizVn4-63" value="avg = sum / size" style="whiteSpace=wrap;html=1;" vertex="1" parent="1">
          <mxGeometry x="122.5" y="1834" width="120" height="60" as="geometry" />
        </mxCell>
        <mxCell id="TH4SRn1m3lPipZhizVn4-68" style="edgeStyle=none;curved=1;rounded=0;orthogonalLoop=1;jettySize=auto;html=1;entryX=0;entryY=0.5;entryDx=0;entryDy=0;fontSize=12;startSize=8;endSize=8;" edge="1" parent="1" source="TH4SRn1m3lPipZhizVn4-65" target="TH4SRn1m3lPipZhizVn4-67">
          <mxGeometry relative="1" as="geometry" />
        </mxCell>
        <mxCell id="TH4SRn1m3lPipZhizVn4-65" value="avg" style="shape=document;whiteSpace=wrap;html=1;boundedLbl=1;" vertex="1" parent="1">
          <mxGeometry x="296" y="1824" width="120" height="80" as="geometry" />
        </mxCell>
        <mxCell id="TH4SRn1m3lPipZhizVn4-67" value="end" style="ellipse;whiteSpace=wrap;html=1;" vertex="1" parent="1">
          <mxGeometry x="475" y="1824" width="120" height="80" as="geometry" />
        </mxCell>
      </root>
    </mxGraphModel>
  </diagram>
</mxfile>
